<svg width="96" height="96" xmlns="http://www.w3.org/2000/svg" xmlns:xlink="http://www.w3.org/1999/xlink" xml:space="preserve" overflow="hidden"><g><path d="M87.9443 18.2524 87.0048 18.2524 87.0048 12.8057C87.0034 11.8102 86.1966 11.0036 85.2011 11.0024L84.0878 11.0024C83.6092 11.0008 83.1499 11.1909 82.8124 11.5303L78.5907 15.7524 77.3632 15.7524C76.2275 15.7494 75.1378 16.2007 74.3368 17.0059L69.0185 22.3242 65.2538 23.0088C63.9512 23.2448 63.0042 24.3793 63.0048 25.7031L63.0048 27.8384 59.6757 31.1675C58.8818 31.9595 57.9112 32.5516 56.8437 32.895L20.289 44.6162C15.2222 46.2454 11.258 50.2273 9.6513 55.3013L6.0513 66.7013C5.88455 67.2275 6.17591 67.7892 6.70207 67.9559 6.9353 68.0298 7.18754 68.0156 7.411 67.916L13.694 65.1237 13.034 67.772C13.0145 67.8511 13.0047 67.9323 13.0047 68.0137L13.0047 76C13.0045 76.0818 13.0145 76.1634 13.0347 76.2427L14.4667 81.97C14.91 83.752 16.5112 85.0022 18.3476 85L23.0009 85C23.5528 85 24.0003 84.5529 24.0009 84.001L24.0028 81.4023C24.0037 79.6791 22.7158 78.2276 21.0048 78.0234L21.0048 70.4141 29.6432 61.7757 53.0048 65.5057 53.0048 76C53.0046 76.0818 53.0146 76.1634 53.0348 76.2427L54.4667 81.97C54.91 83.752 56.5112 85.0022 58.3476 85L63.0009 85C63.5528 85 64.0004 84.5529 64.0009 84.001L64.0028 81.4023C64.0037 79.6791 62.7158 78.2276 61.0048 78.0234L61.0048 66.755C62.3717 66.8857 63.7493 66.6622 65.0048 66.1061L65.0048 79C65.0048 79.5523 65.4525 80 66.0048 80L66.6034 80C67.3761 80.0009 68.0023 80.6273 68.0028 81.4L68.0019 83 66.0048 83C65.4525 83 65.0048 83.4477 65.0048 84 65.0048 84.5523 65.4525 85 66.0048 85L69.0009 85C69.5528 85 70.0004 84.5529 70.0009 84.001L70.0028 81.4023C70.0037 79.6791 68.7158 78.2276 67.0048 78.0234L67.0048 64.8268C67.495 64.4091 67.9322 63.9328 68.3066 63.4087L81.5732 44.5181C82.4746 43.3032 83.1026 41.9076 83.414 40.4272L86.3222 26.7207C86.3864 26.4133 86.5392 26.1314 86.7616 25.9097L89.0234 23.6475C89.6537 23.0204 90.0071 22.1674 90.0048 21.2783L90.0048 20.3125C90.0031 19.1753 89.0815 18.2538 87.9443 18.2524ZM59.0048 65.5446 59.0048 79C59.0048 79.5523 59.4525 80 60.0048 80L60.6034 80C61.3761 80.0009 62.0023 80.6273 62.0028 81.4L62.0019 83 58.3465 83C57.4288 82.9998 56.629 82.3752 56.4065 81.4849L55.0048 75.877 55.0048 64.807C55.003 64.702 54.9945 64.5971 54.9792 64.4932 54.9145 64.0697 54.5847 63.7359 54.162 63.666L29.454 59.7207C29.1402 59.6953 28.8291 59.7961 28.5898 60.0007L19.2978 69.2927C19.1102 69.4803 19.0048 69.7347 19.0048 70L19.0048 79C19.0048 79.5523 19.4525 80 20.0048 80L20.6034 80C21.3761 80.0009 22.0022 80.6273 22.0028 81.4L22.0019 83 18.3465 83C17.4288 82.9998 16.629 82.3752 16.4065 81.4849L15.0048 75.877 15.0048 68.1362 17.18 59.41C17.7385 57.268 18.4755 55.1765 19.3831 53.1575 19.6135 52.6554 19.3933 52.0616 18.8912 51.8312 18.389 51.6007 17.7952 51.821 17.5648 52.3231 16.6018 54.4579 15.8226 56.671 15.2357 58.9383L14.3074 62.6632 8.6474 65.1788C8.6363 65.1838 8.6302 65.1783 8.6339 65.1667L11.5578 55.9041C12.9692 51.4483 16.4505 47.9516 20.9 46.5205L57.4548 34.7994C58.8257 34.3598 60.0718 33.5995 61.0898 32.5815L64.712 28.9593C64.8995 28.7718 65.0048 28.5175 65.0048 28.2524L65.0048 25.7032C65.0048 25.3463 65.26 25.0404 65.6112 24.9766L69.6835 24.2366C69.8836 24.2002 70.0679 24.1037 70.2117 23.9599L75.7502 18.4209C76.178 17.9931 76.7582 17.7527 77.3632 17.7527L79.0045 17.7527C79.2698 17.7528 79.5242 17.6474 79.7118 17.4598L84.1689 13.0027 85.0048 13.0027 85.0048 19.2527C85.0048 19.805 85.4525 20.2527 86.0048 20.2527L88.0048 20.3127 88.0048 21.2792C88.0048 21.6373 87.8625 21.9808 87.6093 22.2341L85.3485 24.4948C84.8521 24.9913 84.5103 25.621 84.3646 26.3078L81.4569 40.0122C81.2025 41.2203 80.6887 42.3586 79.9511 43.3486L66.67 62.2593C65.3444 64.1311 63.0728 65.0902 60.8068 64.7349L60.1642 64.6313C59.6237 64.5629 59.1226 64.9249 59.0177 65.4595Z"/><path d="M27.0048 78.0234 27.0048 69C27.0048 68.4477 26.5571 68 26.0048 68 25.4525 68 25.0048 68.4477 25.0048 69L25.0048 79C25.0048 79.5523 25.4525 80 26.0048 80L26.6034 80C27.3761 80.0009 28.0022 80.6273 28.0028 81.4L28.0019 83 26.0048 83C25.4525 83 25.0048 83.4477 25.0048 84 25.0048 84.5523 25.4525 85 26.0048 85L29.0009 85C29.5528 85 30.0003 84.5529 30.0009 84.001L30.0028 81.4023C30.0037 79.6791 28.7158 78.2276 27.0048 78.0234Z"/><path d="M78.0038 21.5C78.0038 22.3284 77.3322 23 76.5038 23 75.6754 23 75.0038 22.3284 75.0038 21.5 75.0038 20.6716 75.6754 20 76.5038 20 77.3322 20 78.0038 20.6716 78.0038 21.5Z"/></g></svg>