<svg width="96" height="96" xmlns="http://www.w3.org/2000/svg" xmlns:xlink="http://www.w3.org/1999/xlink" xml:space="preserve" overflow="hidden"><g><path fill="#FF6B6B" d="M34.1094 10.1131C36.9554 10.5735 38.7018 14.4118 38.0103 18.6861 37.3188 22.9605 34.4511 26.0523 31.6052 25.5918 28.7593 25.1314 27.0128 21.2931 27.7043 17.0188 28.3958 12.7445 31.2635 9.65268 34.1094 10.1131Z"/><path fill="#00BFFF" d="M44.0662 23.572C46.7282 24.679 47.7635 28.2758 46.3787 31.6058 44.994 34.9357 41.7135 36.7378 39.0515 35.6309 36.3896 34.5239 35.3543 30.9271 36.739 27.5971 38.1238 24.2671 41.4043 22.465 44.0662 23.572Z"/><path fill="#BFFF00" d="M24.1993 17.0147C24.8908 21.2891 23.1443 25.1274 20.2984 25.5878 17.4525 26.0482 14.5848 22.9564 13.8933 18.6821 13.2018 14.4078 14.9482 10.5695 17.7942 10.1091 20.6401 9.64862 23.5077 12.7404 24.1993 17.0147Z"/><path fill="#CC66FF" d="M15.1628 27.5964C16.5476 30.9263 15.5123 34.5232 12.8503 35.6301 10.1884 36.7371 6.90789 34.935 5.52312 31.605 4.13835 28.2751 5.1737 24.6782 7.83563 23.5713 10.4976 22.4643 13.7781 24.2664 15.1628 27.5964Z"/><path d="M26.36 51.87C27.8459 51.8566 29.3018 52.2885 30.54 53.11 30.9163 53.3447 31.3109 53.5487 31.72 53.72 34.9624 55.1683 38.765 53.7138 40.2133 50.4714 40.3663 50.129 40.489 49.7738 40.58 49.41 41.1051 47.4444 40.899 45.3551 40 43.53 39.4313 42.3594 38.6037 41.3335 37.58 40.53 36.8425 39.9757 36.1714 39.3381 35.58 38.63L34.88 37.76C33.8053 36.4621 33.0394 34.9371 32.64 33.3 32.3476 31.9713 31.7212 30.7392 30.82 29.72 28.5455 27 24.4967 26.6388 21.7767 28.9133 21.4844 29.1578 21.2144 29.4277 20.97 29.72 20.0753 30.7436 19.4497 31.974 19.15 33.3 18.7506 34.9371 17.9847 36.4621 16.91 37.76L16.22 38.63C15.6281 39.3377 14.9571 39.9752 14.22 40.53 13.1964 41.3311 12.3716 42.3578 11.81 43.53 10.8998 45.3513 10.6864 47.4424 11.21 49.41 11.6996 51.2412 12.9475 52.7765 14.64 53.63 16.3529 54.4391 18.3312 54.4719 20.07 53.72 20.4531 53.5676 20.8213 53.3801 21.17 53.16 22.3453 52.4087 23.6967 51.9778 25.09 51.91Z"/><path fill="#FF6B6B" d="M79.1127 43.1111C81.9587 43.5716 83.7052 47.4099 83.0136 51.6842 82.3221 55.9585 79.4544 59.0503 76.6085 58.5899 73.7626 58.1294 72.0161 54.2912 72.7076 50.0168 73.3992 45.7425 76.2668 42.6507 79.1127 43.1111Z"/><path fill="#00BFFF" d="M89.0654 56.5726C91.7273 57.6796 92.7626 61.2764 91.3779 64.6064 89.9931 67.9364 86.7126 69.7385 84.0507 68.6315 81.3887 67.5245 80.3534 63.9277 81.7382 60.5977 83.1229 57.2678 86.4034 55.4657 89.0654 56.5726Z"/><path fill="#BFFF00" d="M69.202 50.0142C69.8936 54.2886 68.1471 58.1269 65.3012 58.5873 62.4552 59.0477 59.5876 55.9559 58.8961 51.6816 58.2045 47.4073 59.951 43.569 62.7969 43.1086 65.6428 42.6481 68.5105 45.7399 69.202 50.0142Z"/><path fill="#CC66FF" d="M60.1544 60.5979C61.5392 63.9279 60.5038 67.5247 57.8419 68.6317 55.18 69.7387 51.8995 67.9366 50.5147 64.6066 49.1299 61.2766 50.1653 57.6798 52.8272 56.5728 55.4891 55.4659 58.7696 57.268 60.1544 60.5979Z"/><path d="M71.36 84.87C72.8459 84.8566 74.3018 85.2885 75.54 86.11 75.9163 86.3447 76.3109 86.5487 76.72 86.72 79.9624 88.1683 83.765 86.7138 85.2133 83.4714 85.3663 83.129 85.489 82.7738 85.58 82.41 86.1051 80.4444 85.899 78.3551 85 76.53 84.4313 75.3594 83.6038 74.3335 82.58 73.53 81.8425 72.9757 81.1714 72.3381 80.58 71.63L79.88 70.76C78.8053 69.4621 78.0394 67.9371 77.64 66.3 77.3476 64.9713 76.7212 63.7392 75.82 62.72 73.5455 60 69.4967 59.6388 66.7767 61.9133 66.4844 62.1578 66.2144 62.4277 65.97 62.72 65.0753 63.7436 64.4498 64.974 64.15 66.3 63.7506 67.9371 62.9847 69.4621 61.91 70.76L61.22 71.63C60.6281 72.3377 59.9571 72.9752 59.22 73.53 58.1964 74.3311 57.3716 75.3578 56.81 76.53 55.8998 78.3513 55.6864 80.4424 56.21 82.41 57.2412 85.9464 60.9441 87.9773 64.4805 86.9461 65.0916 86.7679 65.674 86.5032 66.21 86.16 67.3853 85.4087 68.7367 84.9778 70.13 84.91Z"/></g></svg>