<svg width="96" height="96" xmlns="http://www.w3.org/2000/svg" xmlns:xlink="http://www.w3.org/1999/xlink" xml:space="preserve" overflow="hidden"><g><path d="M50.21 17C50.21 19.7614 47.9714 22 45.21 22 42.4486 22 40.21 19.7614 40.21 17 40.21 14.2386 42.4486 12 45.21 12 47.9714 12 50.21 14.2386 50.21 17Z"/><path d="M89.64 72.51C89.24 70.934 88.0987 69.6509 86.58 69.07 86.5826 68.5105 86.5154 67.9529 86.38 67.41 86.1253 66.4039 85.6544 65.4655 85 64.66L85 41C85 37.134 81.866 34 78 34L46.17 34C46.1799 33.8335 46.1799 33.6665 46.17 33.5 46.1638 31.0258 44.153 29.0251 41.6787 29.0313 40.3095 29.0347 39.017 29.6642 38.17 30.74 37.4383 30.2616 36.5841 30.0047 35.71 30 35.3728 30.005 35.0373 30.0487 34.71 30.13 34.5371 27.6618 32.3961 25.8011 29.9279 25.9739 28.8146 26.0519 27.7705 26.5426 27 27.35 23.6082 24.9821 18.939 25.8121 16.571 29.204 15.9158 30.1425 15.4844 31.2187 15.31 32.35 13.012 31.4181 10.3937 32.5254 9.46172 34.8234 8.52978 37.1214 9.63717 39.7398 11.9351 40.6717 12.4984 40.9001 13.1023 41.0118 13.71 41 13.9079 40.9949 14.1051 40.9748 14.3 40.94 14.2398 41.2901 14.2097 41.6447 14.21 42 14.2095 43.588 14.7491 45.1291 15.74 46.37 12.8841 47.3883 11.3944 50.529 12.4127 53.3849 13.1207 55.3708 14.9036 56.7758 17 57L17 69C17 72.866 20.134 76 24 76L52.44 76C52.4543 76.2258 52.4878 76.4499 52.54 76.67 53.2134 79.344 55.9246 80.9681 58.6 80.3 59.0061 80.1869 59.3985 80.0293 59.77 79.83 63.2854 83.6018 69.0923 84.0824 73.18 80.94 76.2758 82.7355 80.241 81.6814 82.0365 78.5856 82.1356 78.4146 82.2269 78.2393 82.31 78.06 84.7085 79.4285 87.7622 78.5936 89.1307 76.1951 89.7681 75.078 89.9505 73.7581 89.64 72.51ZM67 61C67 61.5523 66.5523 62 66 62L36 62C35.4477 62 35 61.5523 35 61L35 49C35 48.4477 35.4477 48 36 48L66 48C66.5523 48 67 48.4477 67 49ZM23 69 23 53 23 53C24.8097 52.8543 26.2054 51.3455 26.21 49.53 26.2022 48.8127 25.9754 48.1149 25.56 47.53 27.2467 46.1922 28.224 44.1528 28.21 42 29.9097 41.9937 31.5269 41.2669 32.66 40L35.77 40C36.8973 41.8999 39.3513 42.5261 41.2512 41.3988 41.8272 41.057 42.3082 40.576 42.65 40L78 40C78.5523 40 79 40.4477 79 41L79 62C78.5723 62.0297 78.1477 62.0932 77.73 62.19 75.9625 62.633 74.4334 63.7396 73.46 65.28 71.9485 64.0343 70.1068 63.2559 68.16 63.04 68.6889 62.4914 68.9893 61.762 69 61L69 49C69 47.3431 67.6569 46 66 46L36 46C34.3431 46 33 47.3431 33 49L33 61C33 62.6569 34.3431 64 36 64L62.82 64C60.3139 65.1858 58.4126 67.3587 57.57 70L24 70C23.4477 70 23 69.5523 23 69Z"/><path d="M64.21 30C64.21 31.1046 63.3146 32 62.21 32 61.1054 32 60.21 31.1046 60.21 30 60.21 28.8954 61.1054 28 62.21 28 63.3146 28 64.21 28.8954 64.21 30Z"/><path d="M28.21 20C28.21 21.1046 27.3146 22 26.21 22 25.1054 22 24.21 21.1046 24.21 20 24.21 18.8954 25.1054 18 26.21 18 27.3146 18 28.21 18.8954 28.21 20Z"/><path d="M88.21 26C88.21 28.2091 86.4191 30 84.21 30 82.0008 30 80.21 28.2091 80.21 26 80.21 23.7909 82.0008 22 84.21 22 86.4191 22 88.21 23.7909 88.21 26Z"/><path d="M76.21 14.5C76.21 15.8807 75.0907 17 73.71 17 72.3293 17 71.21 15.8807 71.21 14.5 71.21 13.1193 72.3293 12 73.71 12 75.0907 12 76.21 13.1193 76.21 14.5Z"/><path d="M12.21 63C12.21 64.6569 10.8669 66 9.21 66 7.55314 66 6.21 64.6568 6.21 63 6.21 61.3431 7.55314 60 9.21 60 10.8669 60 12.21 61.3431 12.21 63Z"/></g></svg>